<?xml version="1.0" standalone="no"?>
<!DOCTYPE svg PUBLIC "-//W3C//DTD SVG 20010904//EN"
 "http://www.w3.org/TR/2001/REC-SVG-20010904/DTD/svg10.dtd">
<svg version="1.0" xmlns="http://www.w3.org/2000/svg"
 width="198.000000pt" height="198.000000pt" viewBox="0 0 198.000000 198.000000"
 preserveAspectRatio="xMidYMid meet">

<g transform="translate(0.000000,198.000000) scale(0.100000,-0.100000)"
fill="#000000" stroke="none">
<path d="M0 990 l0 -990 990 0 990 0 0 990 0 990 -990 0 -990 0 0 -990z m628
488 c14 -18 272 -446 272 -453 0 -7 61 -108 78 -127 13 -16 18 -13 51 40 21
31 104 169 185 305 l147 247 94 0 95 0 0 -500 0 -501 -107 3 -108 3 -3 289 -2
290 -38 -59 c-20 -33 -84 -138 -142 -235 l-105 -175 -60 -3 -60 -2 -54 92
c-30 51 -77 134 -106 183 -28 50 -65 110 -81 135 l-29 45 -5 -280 -5 -280
-107 -3 -108 -3 0 501 0 500 94 0 c63 0 97 -4 104 -12z"/>
</g>
</svg>
